<?xml version="1.0" encoding="UTF-8"?>
<svg version="1.1" xmlns="http://www.w3.org/2000/svg" width="512" height="512">
<path d="M0 0 C1.18803223 -0.01260864 2.37606445 -0.02521729 3.60009766 -0.03820801 C4.87933105 -0.03011108 6.15856445 -0.02201416 7.4765625 -0.01367188 C8.79317871 -0.01749878 10.10979492 -0.02132568 11.46630859 -0.02526855 C14.25051684 -0.03115911 17.03421099 -0.02261601 19.81835938 -0.00390625 C23.38305583 0.01888437 26.94654768 0.00575872 30.51119995 -0.01819611 C33.9164168 -0.03614518 37.32131144 -0.02356965 40.7265625 -0.01367188 C42.6454126 -0.02581726 42.6454126 -0.02581726 44.60302734 -0.03820801 C46.38507568 -0.01929504 46.38507568 -0.01929504 48.203125 0 C49.77054443 0.00477356 49.77054443 0.00477356 51.36962891 0.00964355 C54.78651368 0.64492763 55.94473047 1.85293619 58.1015625 4.51757812 C59.71995172 7.75435657 58.83756289 11.21791355 58.52929688 14.73632812 C52.95987008 85.41368218 65.25310877 135.07999483 101.77029419 195.89241028 C102.27189812 196.73092529 102.77350204 197.56944031 103.29030609 198.43336487 C104.22599024 199.98868338 105.17117345 201.53834171 106.12744904 203.08108521 C107.19513378 204.84936277 108.15933424 206.67938278 109.1015625 208.51757812 C108.7715625 209.50757813 108.4415625 210.49757812 108.1015625 211.51757812 C107.10898437 211.90558594 106.11640625 212.29359375 105.09375 212.69335938 C104.10632813 213.29535156 103.11890625 213.89734375 102.1015625 214.51757812 C101.46834347 217.5023144 101.21613599 219.72049013 101.2265625 222.70507812 C101.195625 223.82946289 101.195625 223.82946289 101.1640625 224.9765625 C101.11701732 226.823086 101.10581363 228.67046032 101.1015625 230.51757812 C102.41843552 230.50647507 103.73530853 230.49537201 105.09208679 230.4839325 C117.49616358 230.38261911 129.90015653 230.30764249 142.30455303 230.25851727 C148.6819704 230.23241245 155.05905402 230.19699703 161.4362793 230.14038086 C167.58951413 230.08609448 173.74242775 230.05616426 179.89588356 230.04319191 C182.24468862 230.03394611 184.5934759 230.01589135 186.94214439 229.98892784 C190.22963973 229.95268385 193.51580414 229.94763104 196.8034668 229.94995117 C198.26326965 229.9229866 198.26326965 229.9229866 199.75256348 229.89547729 C204.34640877 229.93060847 206.43732142 230.0236531 210.21786499 232.83483887 C212.6548358 236.30554328 212.6036902 238.97532974 212.31640625 243.03710938 C212.2673968 244.53721826 212.22289806 246.03747974 212.18237305 247.5378418 C212.15605804 248.31984955 212.12974304 249.1018573 212.10263062 249.90756226 C211.64709129 267.26770022 214.86214277 278.29634392 225.10253906 292.59326172 C228.68725055 297.83723757 231.63150194 303.44260484 234.6640625 309.01757812 C235.78679764 311.05080186 236.912907 313.08216737 238.04296875 315.11132812 C238.51420166 315.96404297 238.98543457 316.81675781 239.47094727 317.6953125 C240.90140711 320.37833679 240.90140711 320.37833679 242.33236504 321.93259048 C247.85405286 328.8814942 246.79467626 337.48592073 246.73266602 345.88574219 C246.73780873 347.65381589 246.74509267 349.42188446 246.75434875 351.18994141 C246.77282069 355.97490179 246.759953 360.75930308 246.74025846 365.54424 C246.72384615 370.5551955 246.73268797 375.56611632 246.73777771 380.5770874 C246.7422941 388.98670363 246.72645283 397.39609709 246.69848633 405.80566406 C246.66639483 415.53067287 246.66646776 425.25528089 246.6837011 434.98031831 C246.69955488 444.33920208 246.69284272 453.69793878 246.67576408 463.0568161 C246.66888861 467.03922181 246.66993099 471.02150981 246.67730904 475.00391388 C246.68496095 479.68919926 246.67288172 484.37402728 246.64546013 489.05923462 C246.63856528 490.77975863 246.63849009 492.50032527 246.64567566 494.22084808 C246.65434529 496.56671064 246.63845893 498.91115335 246.6162262 501.25689697 C246.61341928 502.57020115 246.61061235 503.88350533 246.60772038 505.2366066 C246.1015625 508.51757812 246.1015625 508.51757812 244.60554409 510.93962479 C241.00959702 513.20571041 237.64181414 513.07042379 233.52319336 513.0255127 C232.64871772 513.03175266 231.77424208 513.03799262 230.87326717 513.04442167 C227.93737416 513.06040116 225.0023057 513.04772805 222.06640625 513.03515625 C219.9639538 513.04057516 217.86150515 513.04769652 215.75906372 513.05639648 C210.04424386 513.07466013 204.32971226 513.06754966 198.61488724 513.05488014 C192.64030416 513.04476827 186.66574613 513.05414077 180.69116211 513.0604248 C170.65701862 513.06770649 160.62299282 513.05809979 150.58886719 513.0390625 C138.98035851 513.01729285 127.37213082 513.02434384 115.76362896 513.04636812 C105.80515732 513.06450723 95.84677037 513.06708772 85.88828754 513.05661345 C79.93686122 513.05037034 73.98556706 513.04956537 68.03414917 513.0627594 C62.43954153 513.07429554 56.84529693 513.06633287 51.25072861 513.04318237 C49.1947884 513.03788334 47.13881775 513.03942936 45.08288956 513.04823303 C42.28148804 513.05912489 39.48125802 513.04550201 36.67993164 513.0255127 C35.86164855 513.03443558 35.04336546 513.04335847 34.20028591 513.05255175 C30.65453943 513.00329955 28.50288632 512.79952423 25.56541443 510.73583221 C24.1015625 508.51757812 24.1015625 508.51757812 24.1015625 504.51757812 C18.8215625 504.51757812 13.5415625 504.51757812 8.1015625 504.51757812 C8.1015625 507.15757812 8.1015625 509.79757812 8.1015625 512.51757812 C-0.30424517 512.61027765 -8.70983911 512.68134227 -17.11603165 512.72482681 C-21.01943268 512.74569782 -24.9224839 512.77400569 -28.82568359 512.81933594 C-32.5928567 512.8628124 -36.35969345 512.8867189 -40.12709808 512.8970871 C-41.56404669 512.90447536 -43.00097697 512.91890319 -44.43778229 512.94049835 C-46.45085175 512.96955015 -48.46426003 512.97121217 -50.47753906 512.97167969 C-51.62337463 512.98056213 -52.76921021 512.98944458 -53.94976807 512.99859619 C-57.57902943 512.40655279 -58.71774282 511.4339578 -60.8984375 508.51757812 C-61.2284375 507.19757813 -61.5584375 505.87757813 -61.8984375 504.51757812 C-67.1784375 504.51757812 -72.4584375 504.51757812 -77.8984375 504.51757812 C-77.8984375 507.15757812 -77.8984375 509.79757812 -77.8984375 512.51757812 C-101.81993614 512.61095386 -125.74140753 512.68152418 -149.66305161 512.72482681 C-160.76989579 512.74546597 -171.87662685 512.77361247 -182.98339844 512.81933594 C-192.66227297 512.85916222 -202.34106558 512.88500108 -212.02001977 512.8939321 C-217.14660546 512.89915398 -222.27295678 512.91145542 -227.39946747 512.94049835 C-232.22244622 512.96760093 -237.04509351 512.97603357 -241.86814117 512.97000885 C-243.64029236 512.9711114 -245.41245435 512.97909596 -247.18453979 512.99440002 C-249.60079249 513.01424774 -252.0157872 513.00953712 -254.43206787 512.99859619 C-255.48849255 513.01607324 -255.48849255 513.01607324 -256.56625915 513.03390336 C-259.74912241 512.99483942 -261.54040993 512.79836869 -264.07733893 510.80872941 C-266.25594144 508.06779709 -266.39931746 506.82793561 -266.40180206 503.36696625 C-266.41223305 502.31993357 -266.42266404 501.2729009 -266.43341112 500.19413996 C-266.42448823 499.04512626 -266.41556535 497.89611257 -266.40637207 496.71228027 C-266.41573201 494.87991389 -266.41573201 494.87991389 -266.42528105 493.01052999 C-266.43849351 489.61790707 -266.4337147 486.2261675 -266.42133617 482.8335979 C-266.41230056 479.17572126 -266.42624797 475.51792284 -266.43725586 471.86006165 C-266.45506168 464.69364804 -266.45119198 457.52740181 -266.4396053 450.36098158 C-266.43057933 444.53777479 -266.42934334 438.71461498 -266.43370056 432.8914032 C-266.43431349 432.06326704 -266.43492643 431.23513088 -266.43555793 430.38189968 C-266.43683681 428.69966573 -266.43813366 427.01743179 -266.4394483 425.33519787 C-266.45086013 409.55320278 -266.43773095 393.77130056 -266.41624683 377.9893207 C-266.39837529 364.44156441 -266.40147923 350.89394521 -266.41992188 337.34619141 C-266.44131795 321.62147275 -266.44976144 305.89683554 -266.43747282 290.17210436 C-266.4361986 288.49598727 -266.43494111 286.81987017 -266.43370056 285.14375305 C-266.43277491 283.9066638 -266.43277491 283.9066638 -266.43183056 282.64458284 C-266.42837386 276.82697479 -266.43421287 271.0094183 -266.44361877 265.19181824 C-266.45482614 258.10406738 -266.45182546 251.01649377 -266.4304958 243.92876327 C-266.4199682 240.31101466 -266.41589228 236.69356176 -266.42909241 233.0758152 C-266.44317142 229.15800079 -266.42638464 225.24067284 -266.40637207 221.32287598 C-266.41529496 220.17386228 -266.42421784 219.02484859 -266.43341112 217.84101629 C-266.42298013 216.79398362 -266.41254914 215.74695094 -266.40180206 214.66819 C-266.40115265 213.76358614 -266.40050324 212.85898229 -266.39983416 211.92696619 C-265.73904501 208.75164091 -264.35657111 207.56129135 -261.8984375 205.51757812 C-258.72553037 203.93112456 -255.31018366 204.39679599 -251.828125 204.41992188 C-251.03189728 204.42133682 -250.23566956 204.42275177 -249.41531372 204.42420959 C-246.8679837 204.42981468 -244.32074103 204.44236799 -241.7734375 204.45507812 C-240.04817835 204.46009247 -238.32291783 204.46465549 -236.59765625 204.46875 C-232.36454959 204.47978575 -228.13150836 204.49705376 -223.8984375 204.51757812 C-223.91414795 203.38441162 -223.9298584 202.25124512 -223.94604492 201.08374023 C-224.00109052 196.80647123 -224.03505374 192.52923224 -224.06323242 188.25170898 C-224.07815155 186.41409001 -224.09849418 184.57650555 -224.12475586 182.73901367 C-224.3432744 167.03567158 -223.62290159 152.61578035 -215.8984375 138.51757812 C-215.40601563 137.61523438 -214.91359375 136.71289062 -214.40625 135.78320312 C-204.27086473 118.61609123 -188.81830035 108.56720933 -169.8984375 103.51757812 C-155.44992042 100.50021713 -138.34179685 101.61587803 -125.2734375 108.89257812 C-122.07529996 110.83553746 -122.07529996 110.83553746 -119.0234375 110.01757812 C-117.9921875 109.52257812 -116.9609375 109.02757813 -115.8984375 108.51757812 C-97.72605903 100.66609753 -78.53215054 99.99947864 -59.99072266 107.26513672 C-51.84630236 110.70136066 -45.10323314 115.19787886 -38.8984375 121.51757812 C-40.47624673 125.22803059 -42.80546998 127.81664196 -45.5234375 130.76757812 C-46.74933594 132.105625 -46.74933594 132.105625 -48 133.47070312 C-48.62648437 134.14617187 -49.25296875 134.82164062 -49.8984375 135.51757812 C-52.74144307 134.20494317 -54.94988232 132.71914252 -57.3359375 130.70507812 C-67.98514666 122.53801546 -80.87241609 120.67081617 -93.8984375 121.51757812 C-97.34949043 122.25678249 -100.60886579 123.24419553 -103.8984375 124.51757812 C-103.39054688 125.08863281 -102.88265625 125.6596875 -102.359375 126.24804688 C-90.53028892 140.18155838 -85.68667335 156.67097809 -85.80078125 174.73242188 C-85.80290367 176.01603355 -85.80290367 176.01603355 -85.80506897 177.32557678 C-85.8106276 180.03544743 -85.82317225 182.74523281 -85.8359375 185.45507812 C-85.84095785 187.30208213 -85.84551982 189.14908745 -85.84960938 190.99609375 C-85.86058345 195.50328763 -85.8778192 200.01041846 -85.8984375 204.51757812 C-83.2584375 204.51757812 -80.6184375 204.51757812 -77.8984375 204.51757812 C-77.8984375 207.48757812 -77.8984375 210.45757812 -77.8984375 213.51757812 C-72.6184375 213.51757812 -67.3384375 213.51757812 -61.8984375 213.51757812 C-60.9084375 210.54757813 -60.9084375 210.54757813 -59.8984375 207.51757812 C-58.889884 205.5420866 -58.889884 205.5420866 -57.8044281 203.78215027 C-57.39081874 203.10129175 -56.97720938 202.42043324 -56.5510664 201.71894264 C-56.10165345 200.98886686 -55.65224051 200.25879108 -55.18920898 199.5065918 C-18.63715114 138.89319233 -3.48565696 89.4934894 -9.25323486 18.47642517 C-9.32243669 17.5566454 -9.39163851 16.63686563 -9.46293736 15.68921375 C-9.59459284 13.98770565 -9.74401064 12.28743649 -9.91489315 10.58941936 C-10.18207723 7.0886846 -10.21640184 5.00946068 -8.28157043 2.0163269 C-5.30976233 0.14736118 -3.5024851 0.01066678 0 0 Z M-194.71875 139.59570312 C-205.79582794 153.73428502 -206.33841637 169.08480341 -206.0859375 186.33007812 C-206.0240625 192.33195312 -205.9621875 198.33382812 -205.8984375 204.51757812 C-189.3984375 204.51757812 -172.8984375 204.51757812 -155.8984375 204.51757812 C-155.65011027 193.30072945 -155.65011027 193.30072945 -155.42041016 182.08349609 C-154.97388113 162.52003632 -152.38085035 145.92491213 -140.8984375 129.51757812 C-140.08332487 128.29014244 -139.27028652 127.06132185 -138.4609375 125.83007812 C-137.9453125 125.06695312 -137.4296875 124.30382812 -136.8984375 123.51757812 C-158.83690273 115.99581862 -179.62192737 122.3607039 -194.71875 139.59570312 Z M-121.8984375 134.51757812 C-135.87359948 148.57543338 -138.02444677 164.78456725 -137.98852539 183.69775391 C-137.97942139 185.3295459 -137.97031738 186.96133789 -137.9609375 188.64257812 C-137.9403125 193.88132813 -137.9196875 199.12007813 -137.8984375 204.51757812 C-126.6784375 204.51757812 -115.4584375 204.51757812 -103.8984375 204.51757812 C-103.85218605 199.59179857 -103.81246511 194.66679158 -103.78857422 189.7409668 C-103.77860047 188.07004219 -103.7650166 186.39913465 -103.74755859 184.72827148 C-103.57127586 167.40590022 -104.96900326 152.36162222 -116.15234375 138.25976562 C-117.95882935 136.45732138 -119.56247861 135.50921056 -121.8984375 134.51757812 Z " fill="#000101" transform="translate(265.8984375,-0.517578125)"/>
<path d="M0 0 C1.18803223 -0.01260864 2.37606445 -0.02521729 3.60009766 -0.03820801 C4.87933105 -0.03011108 6.15856445 -0.02201416 7.4765625 -0.01367188 C8.79317871 -0.01749878 10.10979492 -0.02132568 11.46630859 -0.02526855 C14.25051684 -0.03115911 17.03421099 -0.02261601 19.81835938 -0.00390625 C23.38305583 0.01888437 26.94654768 0.00575872 30.51119995 -0.01819611 C33.9164168 -0.03614518 37.32131144 -0.02356965 40.7265625 -0.01367188 C42.6454126 -0.02581726 42.6454126 -0.02581726 44.60302734 -0.03820801 C46.38507568 -0.01929504 46.38507568 -0.01929504 48.203125 0 C49.77054443 0.00477356 49.77054443 0.00477356 51.36962891 0.00964355 C54.78651368 0.64492763 55.94473047 1.85293619 58.1015625 4.51757812 C59.71995172 7.75435657 58.83756289 11.21791355 58.52929688 14.73632812 C52.95987008 85.41368218 65.25310877 135.07999483 101.77029419 195.89241028 C102.27189812 196.73092529 102.77350204 197.56944031 103.29030609 198.43336487 C104.22599024 199.98868338 105.17117345 201.53834171 106.12744904 203.08108521 C107.19513378 204.84936277 108.15933424 206.67938278 109.1015625 208.51757812 C108.1015625 211.51757812 108.1015625 211.51757812 105.265625 213.15820312 C104.09773438 213.68929687 102.92984375 214.22039062 101.7265625 214.76757812 C99.98246094 215.5796875 99.98246094 215.5796875 98.203125 216.40820312 C95.1015625 217.51757812 95.1015625 217.51757812 92.1015625 216.51757812 C90.9543438 214.84117317 90.9543438 214.84117317 89.84933472 212.62112427 C89.42594818 211.78266968 89.00256165 210.94421509 88.56634521 210.08035278 C87.88357513 208.69020462 87.88357513 208.69020462 87.18701172 207.27197266 C86.7005014 206.30128845 86.21399109 205.33060425 85.71273804 204.33050537 C84.10093243 201.10851396 82.50352828 197.87960531 80.90625 194.65039062 C79.79273544 192.41657583 78.67839582 190.18317215 77.56326294 187.95016479 C75.22545506 183.26385421 72.89382318 178.57452821 70.56787109 173.88232422 C67.58240269 167.8597083 64.58606818 161.84257174 61.58582878 155.82730293 C58.73117736 150.10322044 55.88071565 144.37705604 53.03125 138.65039062 C52.48481716 137.55261417 51.93838432 136.45483772 51.37539291 135.32379532 C49.8337709 132.22430628 48.29502517 129.12340849 46.75732422 126.02197266 C46.2980957 125.09925568 45.83886719 124.1765387 45.36572266 123.2258606 C44.94797577 122.38176636 44.53022888 121.53767212 44.099823 120.66799927 C43.55397458 119.56794398 43.55397458 119.56794398 42.99709892 118.44566536 C41.22316756 114.62639644 40.97957968 111.65510833 40.98803711 107.4855957 C40.98811264 106.24453568 40.98818817 105.00347565 40.98826599 103.72480774 C40.99337259 102.37057454 40.99858859 101.01634176 41.00390625 99.66210938 C41.00577167 98.27634227 41.00719499 96.89057451 41.00819397 95.50480652 C41.0120094 91.86009903 41.02183137 88.21543147 41.03289795 84.57073975 C41.043133 80.85055084 41.04775088 77.13035529 41.05273438 73.41015625 C41.06292365 66.11259495 41.08249774 58.81514329 41.1015625 51.51757812 C29.8815625 51.51757812 18.6615625 51.51757812 7.1015625 51.51757812 C7.29298828 57.83076172 7.29298828 57.83076172 7.48828125 64.27148438 C7.55938452 67.6997809 7.61890175 71.12785973 7.67081451 74.55648041 C7.72811101 78.13698028 7.80413845 81.71445856 7.93139648 85.29321289 C8.05394049 88.76246697 8.11728328 92.22886101 8.14521217 95.70011711 C8.17443735 97.6206693 8.25979272 99.54012137 8.3478241 101.45887756 C8.35879932 117.83304224 -0.67876475 131.94890213 -9.6247946 145.10963756 C-39.63681338 189.34418935 -46.79214107 231.33712063 -46.92578125 283.60351562 C-46.92788261 284.37126599 -46.92998396 285.13901636 -46.93214899 285.9300319 C-46.97338455 305.72204559 -46.62386919 325.50247545 -46.15286791 345.28805089 C-45.88294817 356.77370614 -45.71496398 368.25775174 -45.61352539 379.74609375 C-45.60626617 380.56494708 -45.59900695 381.3838004 -45.59152775 382.22746746 C-45.55559403 386.33887122 -45.52129899 390.4502867 -45.48781574 394.56171107 C-45.21160676 428.22117713 -44.62078535 461.86399743 -43.8984375 495.51757812 C-27.0684375 495.51757812 -10.2384375 495.51757812 7.1015625 495.51757812 C7.4315625 501.12757813 7.7615625 506.73757813 8.1015625 512.51757812 C-0.30430974 512.60796385 -8.70980392 512.68134208 -17.11603165 512.72482681 C-21.01943268 512.74569782 -24.9224839 512.77400569 -28.82568359 512.81933594 C-32.5928567 512.8628124 -36.35969345 512.8867189 -40.12709808 512.8970871 C-41.56404669 512.90447536 -43.00097697 512.91890319 -44.43778229 512.94049835 C-46.45085175 512.96955015 -48.46426003 512.97121217 -50.47753906 512.97167969 C-51.62337463 512.98056213 -52.76921021 512.98944458 -53.94976807 512.99859619 C-57.57902943 512.40655279 -58.71774282 511.4339578 -60.8984375 508.51757812 C-61.2284375 507.19757813 -61.5584375 505.87757813 -61.8984375 504.51757812 C-67.1784375 504.51757812 -72.4584375 504.51757812 -77.8984375 504.51757812 C-77.8984375 507.15757812 -77.8984375 509.79757812 -77.8984375 512.51757812 C-101.81993614 512.61095386 -125.74140753 512.68152418 -149.66305161 512.72482681 C-160.76989579 512.74546597 -171.87662685 512.77361247 -182.98339844 512.81933594 C-192.66227297 512.85916222 -202.34106558 512.88500108 -212.02001977 512.8939321 C-217.14660546 512.89915398 -222.27295678 512.91145542 -227.39946747 512.94049835 C-232.22244622 512.96760093 -237.04509351 512.97603357 -241.86814117 512.97000885 C-243.64029236 512.9711114 -245.41245435 512.97909596 -247.18453979 512.99440002 C-249.60079249 513.01424774 -252.0157872 513.00953712 -254.43206787 512.99859619 C-255.48849255 513.01607324 -255.48849255 513.01607324 -256.56625915 513.03390336 C-259.74912241 512.99483942 -261.54040993 512.79836869 -264.07733893 510.80872941 C-266.25594144 508.06779709 -266.39931746 506.82793561 -266.40180206 503.36696625 C-266.41223305 502.31993357 -266.42266404 501.2729009 -266.43341112 500.19413996 C-266.42448823 499.04512626 -266.41556535 497.89611257 -266.40637207 496.71228027 C-266.41573201 494.87991389 -266.41573201 494.87991389 -266.42528105 493.01052999 C-266.43849351 489.61790707 -266.4337147 486.2261675 -266.42133617 482.8335979 C-266.41230056 479.17572126 -266.42624797 475.51792284 -266.43725586 471.86006165 C-266.45506168 464.69364804 -266.45119198 457.52740181 -266.4396053 450.36098158 C-266.43057933 444.53777479 -266.42934334 438.71461498 -266.43370056 432.8914032 C-266.43431349 432.06326704 -266.43492643 431.23513088 -266.43555793 430.38189968 C-266.43683681 428.69966573 -266.43813366 427.01743179 -266.4394483 425.33519787 C-266.45086013 409.55320278 -266.43773095 393.77130056 -266.41624683 377.9893207 C-266.39837529 364.44156441 -266.40147923 350.89394521 -266.41992188 337.34619141 C-266.44131795 321.62147275 -266.44976144 305.89683554 -266.43747282 290.17210436 C-266.4361986 288.49598727 -266.43494111 286.81987017 -266.43370056 285.14375305 C-266.43277491 283.9066638 -266.43277491 283.9066638 -266.43183056 282.64458284 C-266.42837386 276.82697479 -266.43421287 271.0094183 -266.44361877 265.19181824 C-266.45482614 258.10406738 -266.45182546 251.01649377 -266.4304958 243.92876327 C-266.4199682 240.31101466 -266.41589228 236.69356176 -266.42909241 233.0758152 C-266.44317142 229.15800079 -266.42638464 225.24067284 -266.40637207 221.32287598 C-266.41529496 220.17386228 -266.42421784 219.02484859 -266.43341112 217.84101629 C-266.42298013 216.79398362 -266.41254914 215.74695094 -266.40180206 214.66819 C-266.40115265 213.76358614 -266.40050324 212.85898229 -266.39983416 211.92696619 C-265.73904501 208.75164091 -264.35657111 207.56129135 -261.8984375 205.51757812 C-258.72553037 203.93112456 -255.31018366 204.39679599 -251.828125 204.41992188 C-251.03189728 204.42133682 -250.23566956 204.42275177 -249.41531372 204.42420959 C-246.8679837 204.42981468 -244.32074103 204.44236799 -241.7734375 204.45507812 C-240.04817835 204.46009247 -238.32291783 204.46465549 -236.59765625 204.46875 C-232.36454959 204.47978575 -228.13150836 204.49705376 -223.8984375 204.51757812 C-223.91414795 203.38441162 -223.9298584 202.25124512 -223.94604492 201.08374023 C-224.00109052 196.80647123 -224.03505374 192.52923224 -224.06323242 188.25170898 C-224.07815155 186.41409001 -224.09849418 184.57650555 -224.12475586 182.73901367 C-224.3432744 167.03567158 -223.62290159 152.61578035 -215.8984375 138.51757812 C-215.40601563 137.61523438 -214.91359375 136.71289062 -214.40625 135.78320312 C-204.27086473 118.61609123 -188.81830035 108.56720933 -169.8984375 103.51757812 C-155.44992042 100.50021713 -138.34179685 101.61587803 -125.2734375 108.89257812 C-122.07529996 110.83553746 -122.07529996 110.83553746 -119.0234375 110.01757812 C-117.9921875 109.52257812 -116.9609375 109.02757813 -115.8984375 108.51757812 C-97.72605903 100.66609753 -78.53215054 99.99947864 -59.99072266 107.26513672 C-51.84630236 110.70136066 -45.10323314 115.19787886 -38.8984375 121.51757812 C-40.47624673 125.22803059 -42.80546998 127.81664196 -45.5234375 130.76757812 C-46.74933594 132.105625 -46.74933594 132.105625 -48 133.47070312 C-48.62648437 134.14617187 -49.25296875 134.82164062 -49.8984375 135.51757812 C-52.74144307 134.20494317 -54.94988232 132.71914252 -57.3359375 130.70507812 C-67.98514666 122.53801546 -80.87241609 120.67081617 -93.8984375 121.51757812 C-97.34949043 122.25678249 -100.60886579 123.24419553 -103.8984375 124.51757812 C-103.39054688 125.08863281 -102.88265625 125.6596875 -102.359375 126.24804688 C-90.53028892 140.18155838 -85.68667335 156.67097809 -85.80078125 174.73242188 C-85.80290367 176.01603355 -85.80290367 176.01603355 -85.80506897 177.32557678 C-85.8106276 180.03544743 -85.82317225 182.74523281 -85.8359375 185.45507812 C-85.84095785 187.30208213 -85.84551982 189.14908745 -85.84960938 190.99609375 C-85.86058345 195.50328763 -85.8778192 200.01041846 -85.8984375 204.51757812 C-83.2584375 204.51757812 -80.6184375 204.51757812 -77.8984375 204.51757812 C-77.8984375 207.48757812 -77.8984375 210.45757812 -77.8984375 213.51757812 C-72.6184375 213.51757812 -67.3384375 213.51757812 -61.8984375 213.51757812 C-60.9084375 210.54757813 -60.9084375 210.54757813 -59.8984375 207.51757812 C-58.889884 205.5420866 -58.889884 205.5420866 -57.8044281 203.78215027 C-57.39081874 203.10129175 -56.97720938 202.42043324 -56.5510664 201.71894264 C-56.10165345 200.98886686 -55.65224051 200.25879108 -55.18920898 199.5065918 C-18.63715114 138.89319233 -3.48565696 89.4934894 -9.25323486 18.47642517 C-9.32243669 17.5566454 -9.39163851 16.63686563 -9.46293736 15.68921375 C-9.59459284 13.98770565 -9.74401064 12.28743649 -9.91489315 10.58941936 C-10.18207723 7.0886846 -10.21640184 5.00946068 -8.28157043 2.0163269 C-5.30976233 0.14736118 -3.5024851 0.01066678 0 0 Z M-194.71875 139.59570312 C-205.79582794 153.73428502 -206.33841637 169.08480341 -206.0859375 186.33007812 C-206.0240625 192.33195312 -205.9621875 198.33382812 -205.8984375 204.51757812 C-189.3984375 204.51757812 -172.8984375 204.51757812 -155.8984375 204.51757812 C-155.65011027 193.30072945 -155.65011027 193.30072945 -155.42041016 182.08349609 C-154.97388113 162.52003632 -152.38085035 145.92491213 -140.8984375 129.51757812 C-140.08332487 128.29014244 -139.27028652 127.06132185 -138.4609375 125.83007812 C-137.9453125 125.06695312 -137.4296875 124.30382812 -136.8984375 123.51757812 C-158.83690273 115.99581862 -179.62192737 122.3607039 -194.71875 139.59570312 Z M-121.8984375 134.51757812 C-135.87359948 148.57543338 -138.02444677 164.78456725 -137.98852539 183.69775391 C-137.97942139 185.3295459 -137.97031738 186.96133789 -137.9609375 188.64257812 C-137.9403125 193.88132813 -137.9196875 199.12007813 -137.8984375 204.51757812 C-126.6784375 204.51757812 -115.4584375 204.51757812 -103.8984375 204.51757812 C-103.85218605 199.59179857 -103.81246511 194.66679158 -103.78857422 189.7409668 C-103.77860047 188.07004219 -103.7650166 186.39913465 -103.74755859 184.72827148 C-103.57127586 167.40590022 -104.96900326 152.36162222 -116.15234375 138.25976562 C-117.95882935 136.45732138 -119.56247861 135.50921056 -121.8984375 134.51757812 Z " fill="#FD9711" transform="translate(265.8984375,-0.517578125)"/>
<path d="M0 0 C3.19813754 1.94295934 3.19813754 1.94295934 6.25 1.125 C7.28125 0.63 8.3125 0.135 9.375 -0.375 C27.54737847 -8.22648059 46.74128696 -8.89309948 65.28271484 -1.62744141 C73.42713514 1.80878254 80.17020436 6.30530073 86.375 12.625 C84.79719077 16.33545247 82.46796752 18.92406384 79.75 21.875 C78.93273437 22.76703125 78.11546875 23.6590625 77.2734375 24.578125 C76.64695313 25.25359375 76.02046875 25.9290625 75.375 26.625 C72.53199443 25.31236504 70.32355518 23.8265644 67.9375 21.8125 C57.28829084 13.64543734 44.40102141 11.77823804 31.375 12.625 C27.92394707 13.36420436 24.66457171 14.3516174 21.375 15.625 C21.88289062 16.19605469 22.39078125 16.76710938 22.9140625 17.35546875 C34.74314858 31.28898026 39.58676415 47.77839996 39.47265625 65.83984375 C39.47053383 67.12345543 39.47053383 67.12345543 39.46836853 68.43299866 C39.4628099 71.14286931 39.45026525 73.85265468 39.4375 76.5625 C39.43247965 78.40950401 39.42791768 80.25650932 39.42382812 82.10351562 C39.41285405 86.61070951 39.3956183 91.11784034 39.375 95.625 C42.015 95.625 44.655 95.625 47.375 95.625 C47.375 101.565 47.375 107.505 47.375 113.625 C27.575 113.625 7.775 113.625 -12.625 113.625 C-12.625 124.845 -12.625 136.065 -12.625 147.625 C-18.235 147.625 -23.845 147.625 -29.625 147.625 C-29.625 136.405 -29.625 125.185 -29.625 113.625 C-38.205 113.625 -46.785 113.625 -55.625 113.625 C-55.625 203.715 -55.625 293.805 -55.625 386.625 C-21.635 386.625 12.355 386.625 47.375 386.625 C47.375 392.235 47.375 397.845 47.375 403.625 C23.45349524 403.71753277 -0.46796652 403.78894605 -24.38961411 403.83224869 C-35.49645829 403.85288785 -46.60318935 403.88103434 -57.70996094 403.92675781 C-67.38883547 403.96658409 -77.06762808 403.99242296 -86.74658227 404.00135398 C-91.87316796 404.00657586 -96.99951928 404.0188773 -102.12602997 404.04792023 C-106.94900872 404.07502281 -111.77165601 404.08345544 -116.59470367 404.07743073 C-118.36685486 404.07853328 -120.13901685 404.08651783 -121.91110229 404.1018219 C-124.32735499 404.12166962 -126.7423497 404.116959 -129.15863037 404.10601807 C-129.86291349 404.11766943 -130.56719661 404.1293208 -131.29282165 404.14132524 C-134.47568491 404.1022613 -136.26697243 403.90579056 -138.80390143 401.91615129 C-140.98250394 399.17521896 -141.12587996 397.93535749 -141.12836456 394.47438812 C-141.13879555 393.42735545 -141.14922654 392.38032277 -141.15997362 391.30156183 C-141.15105073 390.15254814 -141.14212785 389.00353444 -141.13293457 387.81970215 C-141.14229451 385.98733576 -141.14229451 385.98733576 -141.15184355 384.11795187 C-141.16505601 380.72532895 -141.1602772 377.33358937 -141.14789867 373.94101977 C-141.13886306 370.28314313 -141.15281047 366.62534471 -141.16381836 362.96748352 C-141.18162418 355.80106991 -141.17775448 348.63482368 -141.1661678 341.46840346 C-141.15714183 335.64519667 -141.15590584 329.82203685 -141.16026306 323.99882507 C-141.16087599 323.17068891 -141.16148893 322.34255275 -141.16212043 321.48932156 C-141.16339931 319.80708761 -141.16469616 318.12485367 -141.1660108 316.44261974 C-141.17742263 300.66062465 -141.16429345 284.87872243 -141.14280933 269.09674257 C-141.12493779 255.54898629 -141.12804173 242.00136709 -141.14648438 228.45361328 C-141.16788045 212.72889463 -141.17632394 197.00425741 -141.16403532 181.27952623 C-141.1627611 179.60340914 -141.16150361 177.92729204 -141.16026306 176.25117493 C-141.15933741 175.01408567 -141.15933741 175.01408567 -141.15839306 173.75200471 C-141.15493636 167.93439666 -141.16077537 162.11684018 -141.17018127 156.29924011 C-141.18138864 149.21148926 -141.17838796 142.12391564 -141.1570583 135.03618515 C-141.1465307 131.41843653 -141.14245478 127.80098364 -141.15565491 124.18323708 C-141.16973392 120.26542267 -141.15294714 116.34809472 -141.13293457 112.43029785 C-141.14185746 111.28128416 -141.15078034 110.13227046 -141.15997362 108.94843817 C-141.14954263 107.90140549 -141.13911164 106.85437282 -141.12836456 105.77561188 C-141.12771515 104.87100802 -141.12706574 103.96640416 -141.12639666 103.03438807 C-140.46560751 99.85906279 -139.08313361 98.66871323 -136.625 96.625 C-133.45209287 95.03854643 -130.03674616 95.50421787 -126.5546875 95.52734375 C-125.75845978 95.5287587 -124.96223206 95.53017365 -124.14187622 95.53163147 C-121.5945462 95.53723655 -119.04730353 95.54978986 -116.5 95.5625 C-114.77474085 95.56751435 -113.04948033 95.57207737 -111.32421875 95.57617188 C-107.09111209 95.58720763 -102.85807086 95.60447564 -98.625 95.625 C-98.64071045 94.4918335 -98.6564209 93.35866699 -98.67260742 92.19116211 C-98.72765302 87.91389311 -98.76161624 83.63665411 -98.78979492 79.35913086 C-98.80471405 77.52151188 -98.82505668 75.68392743 -98.85131836 73.84643555 C-99.0698369 58.14309345 -98.34946409 43.72320222 -90.625 29.625 C-90.13257813 28.72265625 -89.64015625 27.8203125 -89.1328125 26.890625 C-78.99742723 9.72351311 -63.54486285 -0.32536879 -44.625 -5.375 C-30.17648292 -8.392361 -13.06835935 -7.27670009 0 0 Z M-69.4453125 30.703125 C-80.52239044 44.8417069 -81.06497887 60.19222529 -80.8125 77.4375 C-80.750625 83.439375 -80.68875 89.44125 -80.625 95.625 C-64.125 95.625 -47.625 95.625 -30.625 95.625 C-30.37667277 84.40815133 -30.37667277 84.40815133 -30.14697266 73.19091797 C-29.70044363 53.6274582 -27.10741285 37.032334 -15.625 20.625 C-14.80988737 19.39756432 -13.99684902 18.16874372 -13.1875 16.9375 C-12.671875 16.174375 -12.15625 15.41125 -11.625 14.625 C-33.56346523 7.10324049 -54.34848987 13.46812578 -69.4453125 30.703125 Z M3.375 25.625 C-10.60016198 39.68285525 -12.75100927 55.89198912 -12.71508789 74.80517578 C-12.70598389 76.43696777 -12.69687988 78.06875977 -12.6875 79.75 C-12.666875 84.98875 -12.64625 90.2275 -12.625 95.625 C-1.405 95.625 9.815 95.625 21.375 95.625 C21.42125145 90.69922044 21.46097239 85.77421345 21.48486328 80.84838867 C21.49483703 79.17746407 21.5084209 77.50655653 21.52587891 75.83569336 C21.70216164 58.5133221 20.30443424 43.4690441 9.12109375 29.3671875 C7.31460815 27.56474325 5.71095889 26.61663244 3.375 25.625 Z " fill="#010000" transform="translate(140.625,108.375)"/>
<path d="M0 0 C11.22 0 22.44 0 34 0 C33.94457031 4.20878906 33.88914062 8.41757812 33.83203125 12.75390625 C33.81862037 16.18236504 33.81640278 19.61043992 33.82154083 23.03890228 C33.82392625 26.61883661 33.80817609 30.1962403 33.74291992 33.77563477 C33.43524803 51.67271048 34.96951847 65.63857311 44.04458618 81.47219849 C46.40542343 85.65915063 48.52495785 89.96260326 50.65307617 94.27124023 C51.06802495 95.1112964 51.48297373 95.95135256 51.91049671 96.81686497 C52.77470309 98.56811587 53.63849062 100.31957354 54.50188255 102.07122612 C56.71231043 106.54255648 58.94932552 111.00051314 61.18554688 115.45898438 C62.09695929 117.27757012 63.00833603 119.09617374 63.91967773 120.91479492 C64.37445496 121.82211365 64.82923218 122.72943237 65.29779053 123.66424561 C67.63948989 128.33725689 69.97881177 133.01145805 72.31835938 137.68554688 C76.8766361 146.79150258 81.43746236 155.89617856 86 165 C88.64 164.34 91.28 163.68 94 163 C94 168.28 94 173.56 94 179 C91.38707031 179.01417969 88.77414062 179.02835938 86.08203125 179.04296875 C83.54340814 179.07360791 81.00504524 179.11269156 78.46655273 179.15258789 C76.70623009 179.17574364 74.94576939 179.19015794 73.18530273 179.19555664 C70.65000621 179.20486442 68.11687372 179.24589048 65.58203125 179.29296875 C64.79850784 179.2890361 64.01498444 179.28510345 63.2077179 179.28105164 C59.1964965 179.3874723 57.37234018 179.74424542 53.97705078 182.07641602 C51.53286137 185.690786 51.48775067 188.29895062 51.78515625 192.484375 C51.83417952 193.97935601 51.87867539 195.47449076 51.91918945 196.96972656 C51.94550446 197.74964966 51.97181946 198.52957275 51.99893188 199.33312988 C52.45983651 216.8567989 49.08125852 228.41721879 38.99902344 243.02929688 C35.52952695 248.18523645 32.5216454 253.60823594 29.4375 259 C27.83939852 261.72645182 26.23574112 264.44955515 24.63061523 267.171875 C23.82346069 268.57179688 23.82346069 268.57179688 23 270 C22.39124558 270.81550025 22.39124558 270.81550025 21.7701931 271.64747524 C16.669634 279.1863864 17.29097138 287.27133255 17.34057617 295.99438477 C17.33211388 297.70998801 17.32146561 299.42558164 17.30880737 301.14115906 C17.28075029 305.77697686 17.28311679 310.41233053 17.29110122 315.04820752 C17.29423361 319.90093587 17.26917049 324.75351829 17.24714661 329.60618591 C17.2097444 338.78573139 17.19756087 347.96512874 17.1945222 357.14474291 C17.18982723 367.59947928 17.15688981 378.05406765 17.12162435 388.50873864 C17.04974134 410.00581337 17.01418301 431.50281643 17 453 C11.39 453 5.78 453 0 453 C0 450.03 0 447.06 0 444 C-16.83 444 -33.66 444 -51 444 C-52.09490424 409.86855185 -52.99349749 375.75508982 -53.50220114 341.61118434 C-53.56343461 337.5164752 -53.6268613 333.42180279 -53.69165039 329.32714844 C-53.7045036 328.51249211 -53.71735681 327.69783578 -53.73059952 326.8584929 C-53.91415894 315.51043555 -54.21460613 304.17099365 -54.61298315 292.82852277 C-55.30107559 273.23330892 -55.75126451 253.64708837 -55.78515625 234.0390625 C-55.78698003 233.27224911 -55.78880381 232.50543572 -55.79068285 231.71538556 C-55.88711662 169.21307212 -40.23078447 122.58316034 -5.20003086 69.96254599 C-1.9348738 65.04440743 -0.87795022 61.83277952 -0.79467773 55.96801758 C-0.77473251 54.72695755 -0.75478729 53.48589752 -0.73423767 52.20722961 C-0.71725473 50.8529981 -0.70037587 49.49876527 -0.68359375 48.14453125 C-0.66301772 46.75875741 -0.64202108 45.37298975 -0.62062073 43.98722839 C-0.56546699 40.34259047 -0.51602826 36.69789654 -0.46777344 33.05316162 C-0.41750944 29.33291659 -0.3619011 25.61275174 -0.30664062 21.89257812 C-0.1986357 14.59511357 -0.09956093 7.29760425 0 0 Z " fill="#59A9E6" transform="translate(273,51)"/>
<path d="M0 0 C39.6 0 79.2 0 120 0 C120 50.82 120 101.64 120 154 C80.4 154 40.8 154 0 154 C0 103.18 0 52.36 0 0 Z " fill="#00CAB1" transform="translate(307,341)"/>
<path d="M0 0 C1.18803223 -0.01260864 2.37606445 -0.02521729 3.60009766 -0.03820801 C4.87933105 -0.03011108 6.15856445 -0.02201416 7.4765625 -0.01367188 C8.79317871 -0.01749878 10.10979492 -0.02132568 11.46630859 -0.02526855 C14.25051684 -0.03115911 17.03421099 -0.02261601 19.81835938 -0.00390625 C23.38305583 0.01888437 26.94654768 0.00575872 30.51119995 -0.01819611 C33.9164168 -0.03614518 37.32131144 -0.02356965 40.7265625 -0.01367188 C42.6454126 -0.02581726 42.6454126 -0.02581726 44.60302734 -0.03820801 C46.38507568 -0.01929504 46.38507568 -0.01929504 48.203125 0 C49.24807129 0.00318237 50.29301758 0.00636475 51.36962891 0.00964355 C54.78651368 0.64492763 55.94473047 1.85293619 58.1015625 4.51757812 C59.71995172 7.75435657 58.83756289 11.21791355 58.52929688 14.73632812 C52.95987008 85.41368218 65.25310877 135.07999483 101.77029419 195.89241028 C102.27189812 196.73092529 102.77350204 197.56944031 103.29030609 198.43336487 C104.22599024 199.98868338 105.17117345 201.53834171 106.12744904 203.08108521 C107.19513378 204.84936277 108.15933424 206.67938278 109.1015625 208.51757812 C108.1015625 211.51757812 108.1015625 211.51757812 105.265625 213.15820312 C104.09773437 213.68929687 102.92984375 214.22039062 101.7265625 214.76757812 C100.56382812 215.30898437 99.40109375 215.85039062 98.203125 216.40820312 C95.1015625 217.51757812 95.1015625 217.51757812 92.1015625 216.51757812 C90.9543438 214.84117317 90.9543438 214.84117317 89.84933472 212.62112427 C89.42594818 211.78266968 89.00256165 210.94421509 88.56634521 210.08035278 C87.88357513 208.69020462 87.88357513 208.69020462 87.18701172 207.27197266 C86.7005014 206.30128845 86.21399109 205.33060425 85.71273804 204.33050537 C84.10093243 201.10851396 82.50352828 197.87960531 80.90625 194.65039062 C79.79273544 192.41657583 78.67839582 190.18317215 77.56326294 187.95016479 C75.22545506 183.26385421 72.89382318 178.57452821 70.56787109 173.88232422 C67.58240269 167.8597083 64.58606818 161.84257174 61.58582878 155.82730293 C58.73117736 150.10322044 55.88071565 144.37705604 53.03125 138.65039062 C52.48481716 137.55261417 51.93838432 136.45483772 51.37539291 135.32379532 C49.8337709 132.22430628 48.29502517 129.12340849 46.75732422 126.02197266 C46.2980957 125.09925568 45.83886719 124.1765387 45.36572266 123.2258606 C44.94797577 122.38176636 44.53022888 121.53767212 44.099823 120.66799927 C43.73592405 119.93462908 43.37202511 119.20125889 42.99709892 118.44566536 C41.22316756 114.62639644 40.97957968 111.65510833 40.98803711 107.4855957 C40.98815041 105.62400566 40.98815041 105.62400566 40.98826599 103.72480774 C40.99337259 102.37057454 40.99858859 101.01634176 41.00390625 99.66210938 C41.00577167 98.27634227 41.00719499 96.89057451 41.00819397 95.50480652 C41.0120094 91.86009903 41.02183137 88.21543147 41.03289795 84.57073975 C41.043133 80.85055084 41.04775088 77.13035529 41.05273438 73.41015625 C41.06292365 66.11259495 41.08249774 58.81514329 41.1015625 51.51757812 C29.8815625 51.51757812 18.6615625 51.51757812 7.1015625 51.51757812 C7.22917969 55.72636719 7.35679687 59.93515625 7.48828125 64.27148438 C7.55938452 67.6997809 7.61890175 71.12785973 7.67081451 74.55648041 C7.72811101 78.13698028 7.80413845 81.71445856 7.93139648 85.29321289 C8.05394049 88.76246697 8.11728328 92.22886101 8.14521217 95.70011711 C8.17443735 97.6206693 8.25979272 99.54012137 8.3478241 101.45887756 C8.35879932 117.83304224 -0.67876475 131.94890213 -9.6247946 145.10963756 C-39.63681338 189.34418935 -46.79214107 231.33712063 -46.92578125 283.60351562 C-46.92788261 284.37126599 -46.92998396 285.13901636 -46.93214899 285.9300319 C-46.97338455 305.72204559 -46.62386919 325.50247545 -46.15286791 345.28805089 C-45.88294817 356.77370614 -45.71496398 368.25775174 -45.61352539 379.74609375 C-45.60626617 380.56494708 -45.59900695 381.3838004 -45.59152775 382.22746746 C-45.55559403 386.33887122 -45.52129899 390.4502867 -45.48781574 394.56171107 C-45.21160676 428.22117713 -44.62078535 461.86399743 -43.8984375 495.51757812 C-27.0684375 495.51757812 -10.2384375 495.51757812 7.1015625 495.51757812 C7.5965625 503.93257813 7.5965625 503.93257813 8.1015625 512.51757812 C-0.30430974 512.60796385 -8.70980392 512.68134208 -17.11603165 512.72482681 C-21.01943268 512.74569782 -24.9224839 512.77400569 -28.82568359 512.81933594 C-32.5928567 512.8628124 -36.35969345 512.8867189 -40.12709808 512.8970871 C-41.56404669 512.90447536 -43.00097697 512.91890319 -44.43778229 512.94049835 C-46.45085175 512.96955015 -48.46426003 512.97121217 -50.47753906 512.97167969 C-51.62337463 512.98056213 -52.76921021 512.98944458 -53.94976807 512.99859619 C-57.57902943 512.40655279 -58.71774282 511.4339578 -60.8984375 508.51757812 C-61.83704482 505.5767448 -62.06330906 502.80984706 -62.16394424 499.73441505 C-62.21410828 498.28587133 -62.21410828 498.28587133 -62.26528573 496.8080641 C-62.297161 495.74924383 -62.32903626 494.69042356 -62.36187744 493.59951782 C-62.39871572 492.47158699 -62.435554 491.34365617 -62.4735086 490.18154562 C-62.59500684 486.38306356 -62.70869972 482.58440059 -62.82128906 478.78564453 C-62.86224699 477.44224261 -62.9033211 476.09884423 -62.9445076 474.7554493 C-63.73024654 448.97870051 -64.21744366 423.19780064 -64.58648671 397.4119669 C-64.64755968 393.15319643 -64.71079745 388.89446065 -64.77539062 384.63574219 C-64.79460912 383.3648935 -64.79460912 383.3648935 -64.81421587 382.0683711 C-64.99754683 370.25856923 -65.30416681 358.45789897 -65.71461838 346.65388839 C-66.42413216 326.24775385 -66.88981225 305.85093938 -66.9140625 285.43164062 C-66.91544728 284.62981576 -66.91683207 283.8279909 -66.91825882 283.00186831 C-66.96602791 225.48892822 -55.12652016 186.36486256 -25.75461483 136.3266449 C-24.91271172 134.89161716 -24.91271172 134.89161716 -24.05380046 133.42759895 C-22.94433474 131.53946778 -21.83175082 129.65316508 -20.71591866 127.76878929 C-6.51544653 103.63562058 -4.28135328 81.86913915 -7.1661377 54.07293701 C-7.68607568 48.46374264 -7.88558418 42.84018441 -8.11523438 37.21289062 C-8.37890318 30.91918031 -8.65960263 24.64055246 -9.19593811 18.3633728 C-9.2692485 17.45158768 -9.3425589 16.53980255 -9.41809082 15.60038757 C-9.55832895 13.91387014 -9.71550711 12.22863812 -9.89305115 10.54563904 C-10.17439004 7.05619804 -10.21342151 5.0046749 -8.28355408 2.02029419 C-5.31035819 0.14706533 -3.50575464 0.01067674 0 0 Z " fill="#000101" transform="translate(265.8984375,-0.517578125)"/>
<path d="M0 0 C2.7304633 2.7304633 4.58506203 5.22627122 6.6875 8.4375 C7.38617188 9.49710938 8.08484375 10.55671875 8.8046875 11.6484375 C9.90479171 13.32661255 11.00366034 15.00559264 12.10253906 16.68457031 C13.16965949 18.31242962 14.24102874 19.93750115 15.3125 21.5625 C15.94800781 22.53316406 16.58351563 23.50382812 17.23828125 24.50390625 C18.72281322 26.60726751 20.00653763 28.38165152 22 30 C25.98723382 30.42417381 28.65094182 30.19596174 32 28 C33.55377923 25.98914149 34.93268942 24.03207032 36.29296875 21.8984375 C36.68446609 21.30197418 37.07596344 20.70551086 37.47932434 20.0909729 C38.72428853 18.19128893 39.95644649 16.2837219 41.1875 14.375 C42.43126913 12.46054988 43.67764697 10.54788432 44.92781067 8.63760376 C45.70437498 7.44955967 46.47684754 6.25882953 47.24491882 5.0652771 C48.13744238 3.69302973 49.06508018 2.34372098 50 1 C50.33 1 50.66 1 51 1 C51 77.23 51 153.46 51 232 C47.72438983 228.72438983 45.76748625 226.26317194 43.42578125 222.39453125 C42.75740234 221.32912109 42.08902344 220.26371094 41.40039062 219.16601562 C40.00860952 216.93057301 38.6361084 214.68301065 37.28320312 212.42382812 C33.82468278 206.75881078 33.82468278 206.75881078 28.68505859 202.79443359 C26.11411841 202.27550352 24.51510382 202.26123624 22 203 C19.29487427 204.86053529 17.76362763 207.2636117 16 210 C15.38946777 210.90347168 14.77893555 211.80694336 14.14990234 212.73779297 C12.12386944 215.78108506 10.15005504 218.85293788 8.1875 221.9375 C6.85076231 224.03193355 5.51109199 226.1244994 4.16796875 228.21484375 C3.58297607 229.13386475 2.9979834 230.05288574 2.39526367 230.99975586 C1.93482666 231.65983643 1.47438965 232.31991699 1 233 C0.67 233 0.34 233 0 233 C0 156.11 0 79.22 0 0 Z " fill="#ED8600" transform="translate(17,242)"/>
<path d="M0 0 C16.83 0 33.66 0 51 0 C51 50.82 51 101.64 51 154 C34.17 154 17.34 154 0 154 C0 103.18 0 52.36 0 0 Z " fill="#00B29C" transform="translate(444,341)"/>
<path d="M0 0 C2.08594965 -0.02888555 4.17310876 -0.00260449 6.25808716 0.06729126 C7.40013107 0.06583099 8.54217499 0.06437073 9.71882629 0.06286621 C13.48662635 0.06982315 17.24945446 0.14754449 21.01638794 0.22598267 C23.63095396 0.24463771 26.24555497 0.25887052 28.86016846 0.26885986 C35.03382551 0.29989369 41.20570342 0.38188224 47.37857831 0.48235476 C54.40856128 0.59428414 61.43863106 0.64914876 68.46928382 0.69930911 C82.92600555 0.80372501 97.38132811 0.97951849 111.83670044 1.20254517 C110.39451626 4.89006712 108.76774954 8.28418639 106.82498169 11.73770142 C106.23136841 12.7953772 105.63775513 13.85305298 105.02615356 14.94277954 C104.40675903 16.0391272 103.7873645 17.13547485 103.14920044 18.26504517 C102.54914185 19.33432251 101.94908325 20.40359985 101.33084106 21.50527954 C97.91789705 27.57232824 97.91789705 27.57232824 96.88948059 29.19836426 C95.69552298 31.30526286 95.69552298 31.30526286 94.97203064 34.23724365 C93.44810554 38.3452785 92.2364815 40.38603225 88.83670044 43.20254517 C80.44505688 45.54756659 71.17128375 44.5900587 62.55935669 44.37442017 C59.94623206 44.35203048 57.33305696 44.33495281 54.71986389 44.32296753 C48.5529443 44.28574887 42.3885942 44.18739864 36.22280353 44.06677365 C29.2001646 43.93238475 22.17739924 43.86660345 15.15379345 43.80642843 C0.71344015 43.68118076 -13.72489377 43.47027612 -28.16329956 43.20254517 C-26.65487369 39.33940848 -24.91674939 35.7861109 -22.89767456 32.15957642 C-22.58179382 31.59107468 -22.26591309 31.02257294 -21.94046021 30.43684387 C-21.27283024 29.23677972 -20.60375582 28.03751814 -19.93331909 26.83901978 C-18.92703348 25.03960384 -17.9256484 23.23753279 -16.92501831 21.43496704 C-13.26525607 14.86465212 -13.26525607 14.86465212 -12.21662712 13.09334087 C-11.0886247 11.13491035 -11.0886247 11.13491035 -10.05444527 8.70979786 C-7.56234695 3.63140512 -5.87700473 0.62849841 0 0 Z " fill="#00B29C" transform="translate(342.1632995605469,280.7974548339844)"/>
<path d="M0 0 C39.6 0 79.2 0 120 0 C120 5.94 120 11.88 120 18 C80.4 18 40.8 18 0 18 C0 12.06 0 6.12 0 0 Z " fill="#00907E" transform="translate(341,247)"/>
<path d="M0 0 C2.82194625 2.50851492 4.45223399 5.30218331 6.28515625 8.5859375 C7.20458008 10.22949219 7.20458008 10.22949219 8.14257812 11.90625 C8.77615234 13.0509375 9.40972656 14.195625 10.0625 15.375 C10.69994141 16.51195312 11.33738281 17.64890625 11.99414062 18.8203125 C14.60885002 23.51521746 16.9996172 27.99904301 19 33 C6.46 33 -6.08 33 -19 33 C-14.95383809 25.58203649 -10.88082197 18.20678586 -6.6875 10.875 C-6.15060547 9.93140625 -5.61371094 8.9878125 -5.06054688 8.015625 C-4.54943359 7.12101562 -4.03832031 6.22640625 -3.51171875 5.3046875 C-2.82275513 4.0978833 -2.82275513 4.0978833 -2.11987305 2.86669922 C-1 1 -1 1 0 0 Z " fill="#009684" transform="translate(469,291)"/>
<path d="M0 0 C1.04929688 -0.04898437 2.09859375 -0.09796875 3.1796875 -0.1484375 C6.125 0.375 6.125 0.375 8.48046875 2.2421875 C10.86744788 6.78935439 10.67033044 10.81740443 10.5625 15.875 C10.56958984 16.81214844 10.57667969 17.74929688 10.58398438 18.71484375 C10.49803984 28.03651999 10.49803984 28.03651999 7.125 31.375 C3.91015625 32.07421875 3.91015625 32.07421875 0.1875 32.0625 C-1.03839844 32.08699219 -2.26429688 32.11148437 -3.52734375 32.13671875 C-6.875 31.375 -6.875 31.375 -9.2890625 28.9296875 C-11.32058391 24.37627744 -11.43053827 20.73583837 -11.3125 15.8125 C-11.31958984 14.97525391 -11.32667969 14.13800781 -11.33398438 13.27539062 C-11.28503129 8.51941023 -10.98416664 5.21394658 -7.875 1.375 C-5.19453709 0.03476854 -2.99169501 0.09509055 0 0 Z " fill="#63A8DA" transform="translate(189.875,450.625)"/>
<path d="M0 0 C11.22 0 22.44 0 34 0 C34 5.61 34 11.22 34 17 C22.78 17 11.56 17 0 17 C0 11.39 0 5.78 0 0 Z " fill="#E4E5E6" transform="translate(273,17)"/>
<path d="M0 0 C5.09781002 4.56171145 8.58120235 10.05506373 12.3125 15.75 C12.95767578 16.72066406 13.60285156 17.69132812 14.26757812 18.69140625 C19 25.85263724 19 25.85263724 19 27 C7.12 27 -4.76 27 -17 27 C-15.38642148 22.96605371 -13.94003663 20.20123952 -11.5234375 16.69921875 C-10.853125 15.72275391 -10.1828125 14.74628906 -9.4921875 13.74023438 C-8.44417969 12.22913086 -8.44417969 12.22913086 -7.375 10.6875 C-6.31539062 9.14739258 -6.31539062 9.14739258 -5.234375 7.57617188 C-3.49388988 5.04776444 -1.74898214 2.52253376 0 0 Z " fill="#C67100" transform="translate(42,468)"/>
<path d="M0 0 C11.55 0 23.1 0 35 0 C33.38642148 4.03394629 31.94003663 6.79876048 29.5234375 10.30078125 C28.853125 11.27724609 28.1828125 12.25371094 27.4921875 13.25976562 C26.79351562 14.26716797 26.09484375 15.27457031 25.375 16.3125 C24.66859375 17.33923828 23.9621875 18.36597656 23.234375 19.42382812 C21.49388988 21.95223556 19.74898214 24.47746624 18 27 C15.34347288 23.74731737 12.87826281 20.44555722 10.546875 16.953125 C9.61875 15.56287109 9.61875 15.56287109 8.671875 14.14453125 C8.03765625 13.18933594 7.4034375 12.23414063 6.75 11.25 C6.1003125 10.27933594 5.450625 9.30867187 4.78125 8.30859375 C4.16765625 7.38691406 3.5540625 6.46523437 2.921875 5.515625 C2.36081055 4.67290039 1.79974609 3.83017578 1.22167969 2.96191406 C0 1 0 1 0 0 Z " fill="#C97200" transform="translate(25,222)"/>
<path d="M0 0 C1.65 0 3.3 0 5 0 C5 10.56 5 21.12 5 32 C2.36 32 -0.28 32 -3 32 C-3.33773437 31.04738281 -3.67546875 30.09476562 -4.0234375 29.11328125 C-4.47390696 27.8463359 -4.92443067 26.57940984 -5.375 25.3125 C-5.81585938 24.07113281 -6.25671875 22.82976562 -6.7109375 21.55078125 C-7.7530468 18.68024382 -8.86582998 15.83542506 -10 13 C-10.33 18.94 -10.66 24.88 -11 31 C-12.32 31 -13.64 31 -15 31 C-15 21.1 -15 11.2 -15 1 C-13.02 1 -11.04 1 -9 1 C-8.22563847 2.66503034 -7.45571885 4.33212662 -6.6875 6 C-6.25824219 6.928125 -5.82898438 7.85625 -5.38671875 8.8125 C-3.78875864 12.4855576 -2.40645994 16.24944017 -1 20 C-0.67 13.4 -0.34 6.8 0 0 Z " fill="#64A8D9" transform="translate(195,341)"/>
<path d="M0 0 C2.97 0 5.94 0 9 0 C9.85702451 4.09289985 10.71145708 8.18632951 11.56347656 12.28027344 C11.85377709 13.6733263 12.14478926 15.06623105 12.43652344 16.45898438 C12.85538275 18.45925129 13.27169198 20.46003437 13.6875 22.4609375 C13.93886719 23.66540527 14.19023437 24.86987305 14.44921875 26.11083984 C15 29 15 29 15 31 C13.02 31 11.04 31 9 31 C8.67 29.02 8.34 27.04 8 25 C5.69 25 3.38 25 1 25 C0.67 26.98 0.34 28.96 0 31 C-1.98 31 -3.96 31 -6 31 C-5.85377197 30.27409668 -5.70754395 29.54819336 -5.55688477 28.80029297 C-4.89106665 25.49206696 -4.22676938 22.18353732 -3.5625 18.875 C-3.33240234 17.73289062 -3.10230469 16.59078125 -2.86523438 15.4140625 C-2.64287109 14.30546875 -2.42050781 13.196875 -2.19140625 12.0546875 C-1.98717041 11.03874512 -1.78293457 10.02280273 -1.57250977 8.97607422 C-0.99826816 5.99099738 -0.4870317 3.0004282 0 0 Z " fill="#62A9DB" transform="translate(185,378)"/>
<path d="M0 0 C1.98 0 3.96 0 6 0 C6 3.63 6 7.26 6 11 C6.66 11 7.32 11 8 11 C8.2475 10.29875 8.495 9.5975 8.75 8.875 C10.21168498 5.51312454 11.63901664 2.82006346 14 0 C17.25 -0.375 17.25 -0.375 20 0 C18.64307571 4.07077286 16.64449637 6.90910857 13.92578125 10.15625 C12.57264944 12.85109478 13.09401323 14.13920394 14 17 C15.13871197 19.48222825 16.30456915 21.89378543 17.5625 24.3125 C17.89185547 24.95767578 18.22121094 25.60285156 18.56054688 26.26757812 C19.36824255 27.84785228 20.18337613 29.42432105 21 31 C18.69 31 16.38 31 14 31 C12.02 27.04 10.04 23.08 8 19 C7.67 22.96 7.34 26.92 7 31 C4.69 31 2.38 31 0 31 C0 20.77 0 10.54 0 0 Z " fill="#67A8D5" transform="translate(179,415)"/>
<path d="M0 0 C6.27 0 12.54 0 19 0 C19 1.32 19 2.64 19 4 C14.71 4 10.42 4 6 4 C6 6.97 6 9.94 6 13 C9.3 13 12.6 13 16 13 C16 14.32 16 15.64 16 17 C12.7 17 9.4 17 6 17 C6 20.3 6 23.6 6 27 C10.29 27 14.58 27 19 27 C19 28.32 19 29.64 19 31 C12.73 31 6.46 31 0 31 C0 20.77 0 10.54 0 0 Z " fill="#63A9DA" transform="translate(180,305)"/>
<path d="M0 0 C1.0528418 0.02707031 1.0528418 0.02707031 2.12695312 0.0546875 C3.85605436 0.10173787 5.58445205 0.17348127 7.3125 0.25 C7.3125 1.57 7.3125 2.89 7.3125 4.25 C1.8675 4.745 1.8675 4.745 -3.6875 5.25 C-3.6875 7.56 -3.6875 9.87 -3.6875 12.25 C-3.07261719 12.28738281 -2.45773438 12.32476562 -1.82421875 12.36328125 C-1.01597656 12.42902344 -0.20773438 12.49476563 0.625 12.5625 C1.42550781 12.62050781 2.22601563 12.67851562 3.05078125 12.73828125 C5.79245603 13.35859109 6.72594779 13.93313011 8.3125 16.25 C8.7109375 18.80859375 8.7109375 18.80859375 8.6875 21.6875 C8.69523437 22.63496094 8.70296875 23.58242188 8.7109375 24.55859375 C8.23200341 27.7937466 7.81593613 29.11633288 5.3125 31.25 C2.60020497 31.54642569 0.31510268 31.63061189 -2.375 31.5 C-3.4278418 31.47292969 -3.4278418 31.47292969 -4.50195312 31.4453125 C-6.23105436 31.39826213 -7.95945205 31.32651873 -9.6875 31.25 C-9.6875 29.93 -9.6875 28.61 -9.6875 27.25 C-5.7275 27.25 -1.7675 27.25 2.3125 27.25 C2.3125 24.61 2.3125 21.97 2.3125 19.25 C1.70921875 19.22421875 1.1059375 19.1984375 0.484375 19.171875 C-3.19359568 18.91085773 -6.00455802 18.63311379 -9.25 16.8125 C-11.4792536 12.83861314 -11.47879682 8.69837132 -10.6875 4.25 C-8.42759449 -0.70830016 -4.8652517 -0.23622137 0 0 Z " fill="#61A9DC" transform="translate(190.6875,267.75)"/>
<path d="M0 0 C6.27 0 12.54 0 19 0 C19 1.32 19 2.64 19 4 C17.02 4 15.04 4 13 4 C13 13.24 13 22.48 13 32 C11.02 32 9.04 32 7 32 C7 22.76 7 13.52 7 4 C4.69 4 2.38 4 0 4 C0 2.68 0 1.36 0 0 Z " fill="#66A8D7" transform="translate(180,231)"/>
<path d="M0 0 C2.5 0.25 2.5 0.25 4.5 2.25 C4.75878906 4.28125 4.75878906 4.28125 4.765625 6.75 C4.76820313 7.636875 4.77078125 8.52375 4.7734375 9.4375 C4.76570312 10.365625 4.75796875 11.29375 4.75 12.25 C4.75773438 13.178125 4.76546875 14.10625 4.7734375 15.0625 C4.77085937 15.949375 4.76828125 16.83625 4.765625 17.75 C4.76336914 18.5646875 4.76111328 19.379375 4.75878906 20.21875 C4.5 22.25 4.5 22.25 2.5 24.25 C0 24.5625 0 24.5625 -2.5 24.25 C-4.57477826 21.13783261 -4.75522588 20.40939492 -4.765625 16.87109375 C-4.76820313 16.03255859 -4.77078125 15.19402344 -4.7734375 14.33007812 C-4.76570312 13.45802734 -4.75796875 12.58597656 -4.75 11.6875 C-4.75773438 10.81158203 -4.76546875 9.93566406 -4.7734375 9.03320312 C-4.77085937 8.19595703 -4.76828125 7.35871094 -4.765625 6.49609375 C-4.76336914 5.72966553 -4.76111328 4.9632373 -4.75878906 4.17358398 C-4.33145426 0.99719636 -3.07346913 0.30734691 0 0 Z " fill="#F7981A" transform="translate(189.5,454.75)"/>
<path d="M0 0 C2.42479736 3.63719605 2.38662577 5.85703482 2.625 10.1875 C2.69976562 11.45980469 2.77453125 12.73210937 2.8515625 14.04296875 C2.90054688 15.01878906 2.94953125 15.99460937 3 17 C1.35 17 -0.3 17 -2 17 C-2.25706972 11.08739655 -1.2982126 5.76081841 0 0 Z " fill="#EA9A2C" transform="translate(189,382)"/>
</svg>
